<mxfile host="app.diagrams.net" modified="2023-04-27T22:08:34.913Z" agent="Mozilla/5.0 (Windows NT 10.0; Win64; x64) AppleWebKit/537.36 (KHTML, like Gecko) Chrome/112.0.0.0 Safari/537.36" etag="I-IDOHG5pyQcHrodDrh2" version="21.2.3" type="device">
  <diagram name="Page-1" id="2YBvvXClWsGukQMizWep">
    <mxGraphModel dx="1235" dy="674" grid="1" gridSize="10" guides="1" tooltips="1" connect="1" arrows="1" fold="1" page="1" pageScale="1" pageWidth="850" pageHeight="1100" math="0" shadow="0">
      <root>
        <mxCell id="0" />
        <mxCell id="1" parent="0" />
        <mxCell id="wsTalgO3cjkIJ2JkGeVR-1" value="Admin&lt;br&gt;" style="shape=umlActor;verticalLabelPosition=bottom;verticalAlign=top;html=1;outlineConnect=0;" parent="1" vertex="1">
          <mxGeometry x="100" y="40" width="50" height="80" as="geometry" />
        </mxCell>
        <mxCell id="4lx_aM_NGCXYBV5G3vr7-7" value="Destination Creation&lt;br&gt;Form" style="ellipse;whiteSpace=wrap;html=1;" vertex="1" parent="1">
          <mxGeometry x="250" y="40" width="120" height="80" as="geometry" />
        </mxCell>
        <mxCell id="4lx_aM_NGCXYBV5G3vr7-8" value="Public Destination&lt;br&gt;Database&lt;br&gt;" style="ellipse;whiteSpace=wrap;html=1;" vertex="1" parent="1">
          <mxGeometry x="660" y="40" width="120" height="80" as="geometry" />
        </mxCell>
        <mxCell id="4lx_aM_NGCXYBV5G3vr7-9" value="" style="endArrow=none;dashed=1;html=1;dashPattern=1 3;strokeWidth=2;rounded=0;entryX=0.5;entryY=1;entryDx=0;entryDy=0;exitX=0.5;exitY=0;exitDx=0;exitDy=0;" edge="1" parent="1" source="4lx_aM_NGCXYBV5G3vr7-42" target="4lx_aM_NGCXYBV5G3vr7-7">
          <mxGeometry width="50" height="50" relative="1" as="geometry">
            <mxPoint x="420" y="440" as="sourcePoint" />
            <mxPoint x="450" y="250" as="targetPoint" />
          </mxGeometry>
        </mxCell>
        <mxCell id="4lx_aM_NGCXYBV5G3vr7-14" value="" style="endArrow=none;dashed=1;html=1;dashPattern=1 3;strokeWidth=2;rounded=0;exitX=0.53;exitY=-0.033;exitDx=0;exitDy=0;exitPerimeter=0;" edge="1" parent="1" source="4lx_aM_NGCXYBV5G3vr7-18">
          <mxGeometry width="50" height="50" relative="1" as="geometry">
            <mxPoint x="125" y="440" as="sourcePoint" />
            <mxPoint x="125" y="150" as="targetPoint" />
          </mxGeometry>
        </mxCell>
        <mxCell id="4lx_aM_NGCXYBV5G3vr7-15" value="" style="endArrow=none;dashed=1;html=1;dashPattern=1 3;strokeWidth=2;rounded=0;entryX=0.5;entryY=1;entryDx=0;entryDy=0;exitX=0.5;exitY=0;exitDx=0;exitDy=0;" edge="1" parent="1" source="4lx_aM_NGCXYBV5G3vr7-60" target="4lx_aM_NGCXYBV5G3vr7-8">
          <mxGeometry width="50" height="50" relative="1" as="geometry">
            <mxPoint x="720" y="430" as="sourcePoint" />
            <mxPoint x="770" y="220" as="targetPoint" />
          </mxGeometry>
        </mxCell>
        <mxCell id="4lx_aM_NGCXYBV5G3vr7-18" value="Admin" style="text;html=1;align=center;verticalAlign=middle;resizable=0;points=[];autosize=1;strokeColor=none;fillColor=none;" vertex="1" parent="1">
          <mxGeometry x="95" y="600" width="60" height="30" as="geometry" />
        </mxCell>
        <mxCell id="4lx_aM_NGCXYBV5G3vr7-20" value="" style="shape=umlActor;verticalLabelPosition=bottom;verticalAlign=top;html=1;outlineConnect=0;" vertex="1" parent="1">
          <mxGeometry x="100" y="630" width="50" height="80" as="geometry" />
        </mxCell>
        <mxCell id="4lx_aM_NGCXYBV5G3vr7-21" value="Destination Creation&lt;br&gt;Form" style="ellipse;whiteSpace=wrap;html=1;" vertex="1" parent="1">
          <mxGeometry x="250" y="630" width="120" height="80" as="geometry" />
        </mxCell>
        <mxCell id="4lx_aM_NGCXYBV5G3vr7-22" value="Public Destination&lt;br&gt;Database&lt;br&gt;" style="ellipse;whiteSpace=wrap;html=1;" vertex="1" parent="1">
          <mxGeometry x="660" y="630" width="120" height="80" as="geometry" />
        </mxCell>
        <mxCell id="4lx_aM_NGCXYBV5G3vr7-23" value="Destination Validation Form" style="ellipse;whiteSpace=wrap;html=1;" vertex="1" parent="1">
          <mxGeometry x="460" y="40" width="120" height="80" as="geometry" />
        </mxCell>
        <mxCell id="4lx_aM_NGCXYBV5G3vr7-24" value="" style="endArrow=none;dashed=1;html=1;dashPattern=1 3;strokeWidth=2;rounded=0;entryX=0.5;entryY=1;entryDx=0;entryDy=0;exitX=0.5;exitY=0;exitDx=0;exitDy=0;" edge="1" parent="1" source="4lx_aM_NGCXYBV5G3vr7-55" target="4lx_aM_NGCXYBV5G3vr7-23">
          <mxGeometry width="50" height="50" relative="1" as="geometry">
            <mxPoint x="430" y="450" as="sourcePoint" />
            <mxPoint x="460" y="260" as="targetPoint" />
          </mxGeometry>
        </mxCell>
        <mxCell id="4lx_aM_NGCXYBV5G3vr7-25" value="Destination Validation Form" style="ellipse;whiteSpace=wrap;html=1;" vertex="1" parent="1">
          <mxGeometry x="460" y="630" width="120" height="80" as="geometry" />
        </mxCell>
        <mxCell id="4lx_aM_NGCXYBV5G3vr7-26" value="Create Destination" style="endArrow=classic;html=1;rounded=0;entryX=0;entryY=0;entryDx=0;entryDy=0;" edge="1" parent="1" target="4lx_aM_NGCXYBV5G3vr7-42">
          <mxGeometry width="50" height="50" relative="1" as="geometry">
            <mxPoint x="130" y="160" as="sourcePoint" />
            <mxPoint x="310" y="160" as="targetPoint" />
            <mxPoint as="offset" />
          </mxGeometry>
        </mxCell>
        <mxCell id="4lx_aM_NGCXYBV5G3vr7-27" value="Validate Destination" style="endArrow=classic;html=1;rounded=0;" edge="1" parent="1">
          <mxGeometry width="50" height="50" relative="1" as="geometry">
            <mxPoint x="310" y="419.17" as="sourcePoint" />
            <mxPoint x="515" y="419.17" as="targetPoint" />
            <mxPoint as="offset" />
          </mxGeometry>
        </mxCell>
        <mxCell id="4lx_aM_NGCXYBV5G3vr7-29" value="&amp;lt;&amp;lt;create&amp;gt;&amp;gt;" style="text;html=1;strokeColor=none;fillColor=none;align=center;verticalAlign=middle;whiteSpace=wrap;rounded=0;" vertex="1" parent="1">
          <mxGeometry x="340" y="180" width="20" height="10" as="geometry" />
        </mxCell>
        <mxCell id="4lx_aM_NGCXYBV5G3vr7-30" value="&amp;lt;&amp;lt;added&amp;gt;&amp;gt;" style="text;html=1;strokeColor=none;fillColor=none;align=center;verticalAlign=middle;whiteSpace=wrap;rounded=0;" vertex="1" parent="1">
          <mxGeometry x="330" y="520" width="30" height="40" as="geometry" />
        </mxCell>
        <mxCell id="4lx_aM_NGCXYBV5G3vr7-34" value="setTitle(title)" style="endArrow=classic;html=1;rounded=0;entryX=0;entryY=0;entryDx=0;entryDy=0;" edge="1" parent="1" target="4lx_aM_NGCXYBV5G3vr7-47">
          <mxGeometry width="50" height="50" relative="1" as="geometry">
            <mxPoint x="125" y="250" as="sourcePoint" />
            <mxPoint x="310" y="250" as="targetPoint" />
            <Array as="points">
              <mxPoint x="280" y="250" />
            </Array>
          </mxGeometry>
        </mxCell>
        <mxCell id="4lx_aM_NGCXYBV5G3vr7-35" value="setImage(imageUrl)" style="endArrow=classic;html=1;rounded=0;" edge="1" parent="1">
          <mxGeometry width="50" height="50" relative="1" as="geometry">
            <mxPoint x="125" y="280" as="sourcePoint" />
            <mxPoint x="305" y="280" as="targetPoint" />
          </mxGeometry>
        </mxCell>
        <mxCell id="4lx_aM_NGCXYBV5G3vr7-36" value="setDescription(description)" style="endArrow=classic;html=1;rounded=0;" edge="1" parent="1">
          <mxGeometry width="50" height="50" relative="1" as="geometry">
            <mxPoint x="125" y="310" as="sourcePoint" />
            <mxPoint x="305" y="310" as="targetPoint" />
          </mxGeometry>
        </mxCell>
        <mxCell id="4lx_aM_NGCXYBV5G3vr7-37" value="setGeolocation(coordinates)" style="endArrow=classic;html=1;rounded=0;" edge="1" parent="1">
          <mxGeometry width="50" height="50" relative="1" as="geometry">
            <mxPoint x="125" y="340" as="sourcePoint" />
            <mxPoint x="305" y="340" as="targetPoint" />
          </mxGeometry>
        </mxCell>
        <mxCell id="4lx_aM_NGCXYBV5G3vr7-38" value="submit()" style="endArrow=classic;html=1;rounded=0;" edge="1" parent="1">
          <mxGeometry width="50" height="50" relative="1" as="geometry">
            <mxPoint x="125" y="370" as="sourcePoint" />
            <mxPoint x="305" y="370" as="targetPoint" />
          </mxGeometry>
        </mxCell>
        <mxCell id="4lx_aM_NGCXYBV5G3vr7-40" value="Destination" style="ellipse;whiteSpace=wrap;html=1;aspect=fixed;" vertex="1" parent="1">
          <mxGeometry x="840" y="560" width="70" height="70" as="geometry" />
        </mxCell>
        <mxCell id="4lx_aM_NGCXYBV5G3vr7-41" value="&amp;lt;&amp;lt;create&amp;gt;&amp;gt;" style="endArrow=classic;html=1;rounded=0;dashed=1;" edge="1" parent="1" target="4lx_aM_NGCXYBV5G3vr7-40">
          <mxGeometry width="50" height="50" relative="1" as="geometry">
            <mxPoint x="310" y="595" as="sourcePoint" />
            <mxPoint x="510" y="310" as="targetPoint" />
          </mxGeometry>
        </mxCell>
        <mxCell id="4lx_aM_NGCXYBV5G3vr7-43" value="" style="endArrow=none;dashed=1;html=1;dashPattern=1 3;strokeWidth=2;rounded=0;entryX=0.5;entryY=1;entryDx=0;entryDy=0;exitX=0.5;exitY=0;exitDx=0;exitDy=0;" edge="1" parent="1" source="4lx_aM_NGCXYBV5G3vr7-47" target="4lx_aM_NGCXYBV5G3vr7-42">
          <mxGeometry width="50" height="50" relative="1" as="geometry">
            <mxPoint x="310" y="480" as="sourcePoint" />
            <mxPoint x="310" y="120" as="targetPoint" />
          </mxGeometry>
        </mxCell>
        <mxCell id="4lx_aM_NGCXYBV5G3vr7-42" value="" style="rounded=0;whiteSpace=wrap;html=1;" vertex="1" parent="1">
          <mxGeometry x="305" y="160" width="10" height="30" as="geometry" />
        </mxCell>
        <mxCell id="4lx_aM_NGCXYBV5G3vr7-48" value="" style="endArrow=none;dashed=1;html=1;dashPattern=1 3;strokeWidth=2;rounded=0;entryX=0.5;entryY=1;entryDx=0;entryDy=0;exitX=0.5;exitY=0;exitDx=0;exitDy=0;" edge="1" parent="1" source="4lx_aM_NGCXYBV5G3vr7-46" target="4lx_aM_NGCXYBV5G3vr7-47">
          <mxGeometry width="50" height="50" relative="1" as="geometry">
            <mxPoint x="310" y="480" as="sourcePoint" />
            <mxPoint x="310" y="190" as="targetPoint" />
          </mxGeometry>
        </mxCell>
        <mxCell id="4lx_aM_NGCXYBV5G3vr7-47" value="" style="rounded=0;whiteSpace=wrap;html=1;" vertex="1" parent="1">
          <mxGeometry x="305" y="250" width="10" height="20" as="geometry" />
        </mxCell>
        <mxCell id="4lx_aM_NGCXYBV5G3vr7-49" value="" style="endArrow=none;dashed=1;html=1;dashPattern=1 3;strokeWidth=2;rounded=0;entryX=0.5;entryY=1;entryDx=0;entryDy=0;exitX=0.5;exitY=0;exitDx=0;exitDy=0;" edge="1" parent="1" source="4lx_aM_NGCXYBV5G3vr7-50" target="4lx_aM_NGCXYBV5G3vr7-46">
          <mxGeometry width="50" height="50" relative="1" as="geometry">
            <mxPoint x="310" y="480" as="sourcePoint" />
            <mxPoint x="310" y="270" as="targetPoint" />
          </mxGeometry>
        </mxCell>
        <mxCell id="4lx_aM_NGCXYBV5G3vr7-46" value="" style="rounded=0;whiteSpace=wrap;html=1;" vertex="1" parent="1">
          <mxGeometry x="305" y="280" width="10" height="20" as="geometry" />
        </mxCell>
        <mxCell id="4lx_aM_NGCXYBV5G3vr7-51" value="" style="endArrow=none;dashed=1;html=1;dashPattern=1 3;strokeWidth=2;rounded=0;entryX=0.5;entryY=1;entryDx=0;entryDy=0;exitX=0.5;exitY=0;exitDx=0;exitDy=0;" edge="1" parent="1" source="4lx_aM_NGCXYBV5G3vr7-52" target="4lx_aM_NGCXYBV5G3vr7-50">
          <mxGeometry width="50" height="50" relative="1" as="geometry">
            <mxPoint x="310" y="480" as="sourcePoint" />
            <mxPoint x="310" y="300" as="targetPoint" />
          </mxGeometry>
        </mxCell>
        <mxCell id="4lx_aM_NGCXYBV5G3vr7-50" value="" style="rounded=0;whiteSpace=wrap;html=1;" vertex="1" parent="1">
          <mxGeometry x="305" y="310" width="10" height="20" as="geometry" />
        </mxCell>
        <mxCell id="4lx_aM_NGCXYBV5G3vr7-53" value="" style="endArrow=none;dashed=1;html=1;dashPattern=1 3;strokeWidth=2;rounded=0;entryX=0.5;entryY=1;entryDx=0;entryDy=0;exitX=0.5;exitY=0;exitDx=0;exitDy=0;" edge="1" parent="1" source="4lx_aM_NGCXYBV5G3vr7-21" target="4lx_aM_NGCXYBV5G3vr7-52">
          <mxGeometry width="50" height="50" relative="1" as="geometry">
            <mxPoint x="310" y="480" as="sourcePoint" />
            <mxPoint x="310" y="330" as="targetPoint" />
          </mxGeometry>
        </mxCell>
        <mxCell id="4lx_aM_NGCXYBV5G3vr7-52" value="" style="rounded=0;whiteSpace=wrap;html=1;" vertex="1" parent="1">
          <mxGeometry x="305" y="340" width="10" height="20" as="geometry" />
        </mxCell>
        <mxCell id="4lx_aM_NGCXYBV5G3vr7-54" value="" style="rounded=0;whiteSpace=wrap;html=1;" vertex="1" parent="1">
          <mxGeometry x="305" y="370" width="10" height="20" as="geometry" />
        </mxCell>
        <mxCell id="4lx_aM_NGCXYBV5G3vr7-56" value="" style="endArrow=none;dashed=1;html=1;dashPattern=1 3;strokeWidth=2;rounded=0;entryX=0.5;entryY=1;entryDx=0;entryDy=0;" edge="1" parent="1" target="4lx_aM_NGCXYBV5G3vr7-55">
          <mxGeometry width="50" height="50" relative="1" as="geometry">
            <mxPoint x="520" y="510" as="sourcePoint" />
            <mxPoint x="520" y="120" as="targetPoint" />
          </mxGeometry>
        </mxCell>
        <mxCell id="4lx_aM_NGCXYBV5G3vr7-55" value="" style="rounded=0;whiteSpace=wrap;html=1;" vertex="1" parent="1">
          <mxGeometry x="515" y="420" width="10" height="20" as="geometry" />
        </mxCell>
        <mxCell id="4lx_aM_NGCXYBV5G3vr7-57" value="Destination OK" style="endArrow=classic;html=1;rounded=0;dashed=1;" edge="1" parent="1">
          <mxGeometry x="0.0476" width="50" height="50" relative="1" as="geometry">
            <mxPoint x="520" y="460" as="sourcePoint" />
            <mxPoint x="310" y="460" as="targetPoint" />
            <mxPoint as="offset" />
          </mxGeometry>
        </mxCell>
        <mxCell id="4lx_aM_NGCXYBV5G3vr7-59" value="" style="endArrow=none;dashed=1;html=1;dashPattern=1 3;strokeWidth=2;rounded=0;entryX=0.5;entryY=1;entryDx=0;entryDy=0;exitX=0.5;exitY=0;exitDx=0;exitDy=0;" edge="1" parent="1" source="4lx_aM_NGCXYBV5G3vr7-25">
          <mxGeometry width="50" height="50" relative="1" as="geometry">
            <mxPoint x="520" y="600" as="sourcePoint" />
            <mxPoint x="520" y="510" as="targetPoint" />
          </mxGeometry>
        </mxCell>
        <mxCell id="4lx_aM_NGCXYBV5G3vr7-61" value="" style="endArrow=none;dashed=1;html=1;dashPattern=1 3;strokeWidth=2;rounded=0;entryX=0.5;entryY=1;entryDx=0;entryDy=0;exitX=0.5;exitY=0;exitDx=0;exitDy=0;" edge="1" parent="1" source="4lx_aM_NGCXYBV5G3vr7-22" target="4lx_aM_NGCXYBV5G3vr7-60">
          <mxGeometry width="50" height="50" relative="1" as="geometry">
            <mxPoint x="720" y="630" as="sourcePoint" />
            <mxPoint x="720" y="120" as="targetPoint" />
          </mxGeometry>
        </mxCell>
        <mxCell id="4lx_aM_NGCXYBV5G3vr7-60" value="" style="rounded=0;whiteSpace=wrap;html=1;" vertex="1" parent="1">
          <mxGeometry x="715" y="550" width="10" height="20" as="geometry" />
        </mxCell>
        <mxCell id="4lx_aM_NGCXYBV5G3vr7-62" value="Add Destination" style="endArrow=classic;html=1;rounded=0;entryX=0;entryY=0;entryDx=0;entryDy=0;" edge="1" parent="1" target="4lx_aM_NGCXYBV5G3vr7-60">
          <mxGeometry width="50" height="50" relative="1" as="geometry">
            <mxPoint x="310" y="550" as="sourcePoint" />
            <mxPoint x="710" y="550" as="targetPoint" />
          </mxGeometry>
        </mxCell>
      </root>
    </mxGraphModel>
  </diagram>
</mxfile>
